<svg width="1645" height="2957" viewBox="0 0 1645 2957" fill="none" xmlns="http://www.w3.org/2000/svg">
<g opacity="0.2">
<path d="M834.471 2956.25C1229.3 2956.25 1549.37 2906.56 1549.37 2845.25C1549.37 2783.95 1229.3 2734.25 834.471 2734.25C439.642 2734.25 119.57 2783.95 119.57 2845.25C119.57 2906.56 439.642 2956.25 834.471 2956.25Z" fill="#371A45"/>
</g>
<path d="M967.37 1314.85L975.171 1483.95L1002.27 2069.05L1016.67 2380.45C1016.67 2380.45 1028.57 2381.35 1048.77 2381.95C1136.37 2384.65 1378.97 2381.85 1463.27 2275.15C1501.67 2226.45 1524.37 2084.75 1530.37 1929.05C1537.57 1739.35 1519.97 1528.85 1475.67 1441.05C1438.47 1367.45 1333.97 1332.45 1225.67 1317.95C1185.87 1312.55 1145.47 1309.85 1107.77 1309.15C1051.57 1307.95 1001.37 1310.85 967.37 1314.85Z" fill="white"/>
<g opacity="0.2">
<path d="M1002.27 2069.05L1016.67 2380.55C1016.67 2380.55 1359.57 2406.45 1463.27 2275.25C1501.67 2226.65 1524.37 2084.85 1530.37 1929.15L1318.47 1887.25C1318.47 1887.25 1244.27 1887.05 1235.37 2122.75C1232.87 2188.65 1131.77 2211.95 1057.77 2157.75C1031.07 2137.95 1013.67 2106.35 1002.27 2069.05Z" fill="#371A45"/>
</g>
<path d="M1087.37 2401.15C1046.87 2401.15 1019.17 2399.15 1015.27 2398.85C1005.17 2398.05 997.571 2389.25 998.371 2379.15C999.171 2369.05 1007.97 2361.45 1018.07 2362.15C1021.37 2362.45 1352.37 2385.85 1448.87 2263.75C1484.77 2218.35 1510.67 2063.05 1513.37 1877.35C1516.07 1687.85 1494.87 1519.85 1459.27 1449.35C1396.77 1325.55 1102.37 1317.55 969.671 1333.05C959.571 1334.15 950.47 1327.05 949.27 1316.95C948.07 1306.85 955.271 1297.75 965.371 1296.55C1085.67 1282.45 1414.77 1279.55 1492.07 1432.75C1538.27 1524.25 1552.37 1722.65 1550.07 1877.85C1547.77 2034.05 1527.67 2223.35 1477.67 2286.55C1398.57 2386.75 1196.47 2401.15 1087.37 2401.15Z" fill="#371A45"/>
<path d="M1511.37 1896.15L1330.47 1907.05C1314.37 1908.05 1300.87 1919.75 1297.77 1935.65C1286.37 1993.75 1266.97 2129.45 1323.07 2175.15C1369.57 2213.05 1446.07 2209.85 1491.37 2172.55C1542.07 2130.85 1548.87 1997.75 1549.07 1931.75C1549.17 1911.15 1531.87 1894.85 1511.37 1896.15Z" fill="white"/>
<g opacity="0.2">
<path d="M1297.87 1935.65C1286.47 1993.75 1267.07 2129.35 1323.17 2175.05C1369.67 2213.05 1446.17 2209.75 1491.47 2172.45C1522.67 2146.85 1537.27 2086.55 1543.87 2028.65C1535.27 2057.55 1522.17 2080.85 1506.07 2096.05C1413.67 2183.15 1347.27 2077.85 1347.27 2077.85C1347.27 2077.85 1335.07 2103.05 1325.67 2104.35C1286.27 2109.75 1296.17 1986.85 1302.77 1923.35C1300.37 1926.95 1298.67 1931.15 1297.87 1935.65Z" fill="#371A45"/>
</g>
<path d="M1404.47 2220.45C1370.57 2220.45 1336.97 2210.15 1311.47 2189.35C1249.87 2139.05 1265.17 2006.65 1279.77 1932.05C1284.47 1907.95 1304.97 1890.15 1329.47 1888.65L1510.37 1877.75C1525.17 1876.85 1539.87 1882.15 1550.67 1892.35C1561.47 1902.55 1567.57 1916.85 1567.57 1931.65C1567.37 2024.05 1555.97 2143.25 1503.17 2186.65C1475.77 2209.15 1439.97 2220.45 1404.47 2220.45ZM1512.47 1914.45L1331.57 1925.35C1323.77 1925.85 1317.27 1931.45 1315.77 1939.15C1293.97 2050.55 1300.97 2133.35 1334.67 2160.85C1373.27 2192.35 1439.67 2191.15 1479.67 2158.35C1511.37 2132.35 1530.37 2047.65 1530.67 1931.65C1530.67 1926.85 1528.77 1922.45 1525.27 1919.15C1521.87 1915.85 1517.27 1914.25 1512.47 1914.45Z" fill="#371A45"/>
<path d="M1365.27 1971.45C1370.27 2044.95 1357.77 2155.95 1447.17 2179.45C1457.07 2181.95 1463.07 2191.95 1460.57 2201.85C1458.07 2211.75 1448.07 2217.65 1438.27 2215.15C1425.97 2211.35 1413.97 2205.75 1402.97 2198.35C1371.67 2177.95 1353.97 2139.95 1348.37 2105.45C1340.17 2061.05 1345.67 2015.85 1345.77 1972.25C1345.97 1959.85 1363.97 1959.05 1365.27 1971.45Z" fill="#371A45"/>
<path d="M1372.77 1431.55C1299.67 1435.65 1225.87 1441.95 1153.87 1455.15C1130.17 1459.75 1106.37 1464.95 1084.97 1472.75C1061.97 1480.45 1049.67 1447.25 1072.37 1438.15C1122.67 1424.15 1172.77 1420.95 1223.87 1417.85C1273.57 1415.25 1322.97 1414.65 1372.67 1415.65C1382.67 1415.95 1382.97 1430.95 1372.77 1431.55Z" fill="#371A45"/>
<path d="M1096.87 1281.95C1096.87 1281.95 1197.37 1336.35 1283.97 1414.75C1347.47 1472.25 1385.57 1677.05 1266.37 1741.95C1147.07 1806.85 1065.97 1500.15 1065.97 1500.15" fill="white"/>
<path d="M1259.17 1393.15C1223.17 1446.55 1157.87 1492.55 1073.57 1525.75C1068.57 1509.95 1065.97 1500.15 1065.97 1500.15L1096.87 1281.95C1096.87 1281.85 1179.27 1326.45 1259.17 1393.15Z" fill="white"/>
<path d="M1195.47 1458.85C1098.37 1533.35 936.071 1582.15 752.271 1582.15C650.171 1582.15 554.77 1567.05 473.47 1540.95C486.27 1460.25 499.17 1371.95 510.47 1275.45H1121.17C1148.17 1337.65 1173.07 1398.95 1195.47 1458.85Z" fill="#E8E8E8"/>
<path d="M1233.17 1769.25C1221.97 1769.25 1210.77 1766.95 1199.87 1762.15C1108.27 1722.65 1054.17 1526.95 1048.27 1504.75C1045.67 1494.95 1051.57 1484.85 1061.37 1482.25C1071.17 1479.65 1081.27 1485.45 1083.87 1495.35C1098.57 1550.85 1150.67 1700.85 1214.47 1728.35C1229.07 1734.65 1242.77 1733.75 1257.67 1725.65C1316.77 1693.45 1331.07 1633.15 1334.27 1600.15C1340.77 1533.85 1315.87 1464.95 1272.27 1428.75C1272.07 1428.55 1271.87 1428.45 1271.67 1428.25C1187.67 1352.15 1089.17 1298.55 1088.17 1298.05C1079.27 1293.25 1075.87 1282.05 1080.77 1273.15C1085.67 1264.25 1096.77 1260.85 1105.67 1265.75C1109.87 1268.05 1208.97 1321.95 1296.07 1400.85C1349.27 1445.25 1378.57 1524.95 1370.87 1603.85C1364.17 1672.45 1329.27 1728.65 1275.17 1758.15C1261.47 1765.55 1247.27 1769.25 1233.17 1769.25Z" fill="#371A45"/>
<path d="M840.971 2523.15C842.071 2666.15 852.97 2784.25 841.17 2817.85C822.07 2872.75 772.47 2877.55 772.47 2877.55H588.87C588.87 2877.55 486.17 2883.35 454.97 2854.75C423.87 2826.15 422.57 2781.25 439.47 2754.65C459.27 2723.55 503.97 2716.95 503.97 2716.95C503.97 2716.95 479.07 2558.65 454.07 2342.45C445.27 2266.15 436.37 2182.75 428.67 2096.55L852.67 2281.35C842.57 2362.95 840.371 2446.65 840.971 2523.15Z" fill="white"/>
<g opacity="0.2">
<path d="M841.17 2817.85C822.07 2872.75 772.47 2877.55 772.47 2877.55H588.87C588.87 2877.55 486.17 2883.35 454.97 2854.75C426.67 2828.75 423.07 2789.45 435.27 2762.55C439.57 2772.65 445.97 2782.15 454.97 2790.35C486.17 2819.05 588.87 2813.15 588.87 2813.15H772.47C772.47 2813.15 822.17 2808.35 841.17 2753.45C843.77 2745.85 845.37 2733.95 846.07 2718.35C847.27 2766.45 846.87 2801.85 841.17 2817.85Z" fill="#371A45"/>
</g>
<path d="M846.071 2704.55C844.771 2651.95 841.571 2584.05 840.971 2509.45C840.871 2491.75 840.871 2473.85 841.071 2455.45C842.271 2561.65 848.471 2653.05 846.071 2704.55Z" fill="#D8D8D8"/>
<g opacity="0.2">
<path d="M840.971 2523.15C749.271 2419.05 557.67 2365.15 453.97 2342.55C445.17 2266.25 436.27 2182.85 428.57 2096.65L852.57 2281.45C842.57 2362.95 840.371 2446.65 840.971 2523.15Z" fill="#371A45"/>
</g>
<path d="M564.77 2896.65C529.07 2896.65 468.97 2892.75 442.47 2868.35C404.07 2833.05 402.87 2777.85 423.97 2744.85C439.27 2720.85 465.67 2708.85 483.27 2703.25C473.27 2636.85 435.77 2381.05 410.37 2098.25C409.47 2088.15 416.97 2079.15 427.07 2078.25C437.17 2077.35 446.17 2084.85 447.07 2094.95C476.37 2421.15 521.77 2711.25 522.27 2714.15C523.07 2718.95 521.87 2723.95 518.87 2727.95C515.97 2731.95 511.57 2734.55 506.77 2735.25C506.47 2735.25 470.07 2741.15 455.07 2764.65C442.47 2784.45 443.67 2819.35 467.47 2841.35C484.97 2857.45 548.37 2861.55 587.87 2859.35C588.17 2859.35 588.57 2859.35 588.87 2859.35H771.37C776.47 2858.55 809.97 2852.05 823.87 2812.05C830.37 2793.45 828.271 2732.65 825.971 2662.25C822.471 2558.15 817.67 2415.55 834.37 2279.35C835.57 2269.25 844.77 2262.15 854.87 2263.35C864.97 2264.55 872.17 2273.75 870.87 2283.85C854.57 2417.25 859.27 2558.15 862.77 2661.05C865.57 2744.15 867.371 2799.05 858.671 2824.15C835.971 2889.45 776.87 2895.85 774.37 2896.05C773.77 2896.15 773.17 2896.15 772.57 2896.15H589.37C584.67 2896.25 575.87 2896.65 564.77 2896.65Z" fill="#371A45"/>
<path d="M1311.57 2048.15C1306.47 2100.05 1294.67 2147.05 1275.27 2188.45C1196.07 2356.95 784.07 2479.05 525.17 2296.75C440.87 2237.35 409.97 2157.95 407.67 2047.35C404.27 1877.15 468.67 1633.25 510.47 1275.45H1121.17C1157.57 1359.35 1190.17 1441.35 1217.77 1520.55C1287.87 1721.35 1325.77 1903.45 1311.57 2048.15Z" fill="white"/>
<g opacity="0.2">
<path d="M1311.57 2048.15C1306.47 2100.05 1294.67 2147.05 1275.27 2188.45C1196.07 2356.95 784.071 2479.05 525.171 2296.75C440.871 2237.35 409.971 2157.95 407.671 2047.35C634.971 2059.35 1101.37 2076.95 1311.57 2048.15Z" fill="#371A45"/>
</g>
<g opacity="0.2">
<path d="M1103.97 1508.45C1105.57 1507.75 1107.17 1506.95 1108.77 1506.25C1111.77 1504.85 1114.67 1503.45 1117.57 1502.05C1119.17 1501.25 1120.87 1500.45 1122.47 1499.65C1125.57 1498.15 1128.57 1496.55 1131.57 1494.95C1132.87 1494.25 1134.17 1493.65 1135.47 1492.95C1139.57 1490.75 1143.57 1488.55 1147.57 1486.35C1149.07 1485.45 1150.57 1484.65 1151.97 1483.75C1154.47 1482.25 1157.07 1480.75 1159.47 1479.25C1161.27 1478.15 1162.97 1477.15 1164.67 1476.05C1166.87 1474.65 1168.97 1473.35 1171.07 1471.95C1172.77 1470.85 1174.57 1469.65 1176.27 1468.55C1178.37 1467.15 1180.37 1465.75 1182.47 1464.35C1184.07 1463.25 1185.67 1462.15 1187.27 1460.95C1190.07 1458.95 1192.87 1456.85 1195.57 1454.75C1222.57 1434.25 1244.67 1411.85 1260.77 1387.85C1213.87 1348.65 1166.07 1317.15 1134.57 1297.85C1130.67 1288.65 1126.77 1279.45 1122.77 1270.15H512.37C501.07 1366.65 488.17 1454.95 475.37 1535.65C556.67 1561.75 652.071 1576.85 754.171 1576.85C881.271 1576.85 997.97 1553.55 1090.07 1514.45C1091.27 1513.95 1092.47 1513.35 1093.77 1512.85C1097.27 1511.45 1100.67 1509.95 1103.97 1508.45Z" fill="#371A45"/>
</g>
<path d="M528.771 1277.55C510.771 1432.65 482.271 1604.25 456.271 1759.25C443.671 1838.85 430.771 1918.15 426.871 1998.35C421.571 2103.35 435.671 2207.65 525.771 2274.15C566.671 2305.45 614.871 2328.55 663.871 2344.05C814.371 2389.25 982.771 2371.55 1123.17 2301.85C1178.77 2272.85 1234.57 2233.95 1260.67 2175.65C1317.97 2044.25 1295.77 1885.35 1265.67 1748.95C1245.77 1670.85 1225.67 1593.45 1205.97 1514.85C1204.77 1509.85 1207.77 1504.85 1212.67 1503.65C1217.07 1502.55 1221.47 1504.75 1223.27 1508.75C1246.17 1558.15 1265.37 1609.15 1281.67 1661.25C1298.37 1720.35 1310.97 1780.85 1320.87 1841.45C1337.77 1957.35 1342.57 2080.75 1294.07 2190.75C1288.57 2203.95 1280.17 2217.35 1272.07 2229.05C1229.17 2287.05 1166.47 2324.05 1101.87 2352.35C960.87 2410.45 799.571 2423.75 652.871 2379.15C599.471 2362.25 547.871 2337.35 503.271 2303.25C430.171 2248.85 396.471 2168.95 390.871 2079.85C386.571 2024.75 390.871 1969.25 396.771 1914.65C406.571 1820.15 431.571 1688.15 446.371 1593.35C463.871 1486.95 479.571 1380.35 492.171 1273.25C495.671 1249.65 530.671 1252.75 528.771 1277.55Z" fill="#371A45"/>
<path d="M1295.57 2178.65C1293.67 2250.55 1291.67 2331.15 1289.57 2410.55C1284.17 2610.25 1277.57 2801.95 1269.27 2825.85C1250.17 2880.75 1200.57 2885.55 1200.57 2885.55H999.171C999.171 2885.55 980.771 2888.85 947.471 2862.75C919.971 2841.25 907.871 2795.65 926.671 2759.35C933.271 2746.55 946.171 2734.25 946.171 2734.25C946.171 2734.25 915.771 2573.65 895.971 2420.75C890.771 2379.95 886.27 2339.75 883.27 2303.25L1073.17 2010.45L1272.57 1702.95C1287.07 1846.85 1311.37 1921.75 1322.47 1983.35C1333.37 2043.75 1331.67 2091.35 1295.57 2178.65Z" fill="white"/>
<g opacity="0.2">
<path d="M1276.57 2759.75C1274.37 2794.85 1271.87 2818.45 1269.27 2825.95C1250.17 2880.85 1200.57 2885.65 1200.57 2885.65H999.171C999.171 2885.65 980.771 2888.95 947.471 2862.85C924.171 2844.65 911.971 2809.25 920.171 2776.75C925.471 2787.75 932.871 2797.15 941.871 2804.25C976.371 2831.35 995.371 2827.85 995.371 2827.85H1203.87C1203.87 2827.85 1255.17 2822.85 1275.07 2766.05C1275.57 2764.55 1276.07 2762.45 1276.57 2759.75Z" fill="#371A45"/>
</g>
<g opacity="0.2">
<path d="M1295.57 2178.65C1293.67 2250.55 1291.67 2331.15 1289.57 2410.55C1115.57 2350.05 895.971 2420.65 895.971 2420.65C890.771 2379.85 886.27 2339.65 883.27 2303.15L1073.17 2010.35L1322.47 1983.25C1333.37 2043.75 1331.67 2091.35 1295.57 2178.65Z" fill="#371A45"/>
</g>
<path d="M599.971 2329.35C669.471 2354.95 742.271 2369.95 816.471 2369.05C841.071 2369.05 865.971 2368.05 891.471 2367.45C900.071 2367.25 907.271 2373.45 908.671 2381.65C923.371 2478.45 941.871 2590.45 957.371 2687.35C959.771 2701.85 962.07 2716.35 964.27 2730.85C965.77 2737.05 963.871 2743.85 958.971 2747.55C930.171 2772.55 928.07 2818.75 955.57 2845.65C967.07 2855.25 980.571 2864.65 995.171 2867.35C995.871 2867.55 996.47 2867.45 997.07 2867.55C996.87 2867.55 997.571 2867.45 995.971 2867.75L999.171 2867.45H1200.57L1198.77 2867.55C1229.27 2861.95 1252.57 2836.25 1254.47 2803.95C1271.57 2593.95 1268.27 2382.15 1278.67 2171.85C1293.57 2135.35 1306.27 2098.15 1309.27 2060.75C1312.67 2022.25 1304.57 1984.25 1295.97 1946.15C1286.97 1906.95 1277.87 1866.85 1270.87 1826.45C1263.77 1786.15 1258.37 1745.55 1254.27 1704.85C1253.27 1694.75 1260.57 1685.75 1270.67 1684.65C1280.77 1683.55 1289.77 1690.95 1290.87 1701.05C1298.57 1781.35 1313.17 1859.25 1331.87 1937.95C1341.07 1978.55 1349.77 2021.05 1345.87 2063.55C1342.37 2106.25 1328.57 2146.75 1312.67 2185.65C1311.97 2336.15 1304.27 2561.55 1296.37 2737.25C1293.87 2768.75 1294.27 2800.65 1286.77 2831.75C1280.47 2850.05 1269.67 2867.45 1254.17 2880.45C1240.57 2891.95 1224.27 2899.95 1206.77 2903.25C1205.37 2903.55 1202.67 2903.95 1200.57 2903.95H999.171L1002.37 2903.65C999.671 2904.05 999.27 2903.95 998.07 2904.05C977.37 2904.05 958.07 2893.05 942.07 2881.75C888.37 2844.75 884.971 2764.05 933.471 2720.95L928.171 2737.65C924.971 2723.15 921.971 2708.65 919.171 2694.15C904.971 2622.05 893.071 2548.05 883.871 2475.25C880.271 2445.85 876.571 2416.45 874.371 2386.85L891.77 2402.25C841.47 2402.15 789.17 2402.75 739.07 2393.65C688.37 2385.05 639.271 2368.25 592.971 2346.25C582.871 2341.55 588.371 2325.35 599.971 2329.35Z" fill="#371A45"/>
<path d="M956.67 1822.15C965.77 1833.85 978.77 1844.65 992.07 1850.95C1001.37 1855.45 1005.37 1866.65 1000.87 1875.95C995.37 1888.05 978.17 1890.25 969.77 1880.15C955.77 1865.35 946.071 1848.95 939.971 1829.65C938.471 1824.75 941.17 1819.65 946.07 1818.15C950.17 1816.85 954.37 1818.75 956.67 1822.15Z" fill="#371A45"/>
<path d="M444.171 2096.15C481.284 2096.15 511.37 2066.06 511.37 2028.95C511.37 1991.84 481.284 1961.75 444.171 1961.75C407.057 1961.75 376.97 1991.84 376.97 2028.95C376.97 2066.06 407.057 2096.15 444.171 2096.15Z" fill="white"/>
<g opacity="0.2">
<path d="M511.37 2028.95C511.37 2066.05 481.271 2096.15 444.171 2096.15C407.071 2096.15 376.97 2066.05 376.97 2028.95C376.97 2019.05 379.07 2009.65 382.97 2001.25C393.47 2024.55 416.971 2040.75 444.171 2040.75C471.371 2040.75 494.87 2024.55 505.37 2001.25C509.27 2009.65 511.37 2019.05 511.37 2028.95Z" fill="#371A45"/>
</g>
<path d="M444.171 2114.55C396.971 2114.55 358.57 2076.15 358.57 2028.95C358.57 1981.75 396.971 1943.35 444.171 1943.35C491.371 1943.35 529.771 1981.75 529.771 2028.95C529.771 2076.15 491.371 2114.55 444.171 2114.55ZM444.171 1980.15C417.271 1980.15 395.37 2002.05 395.37 2028.95C395.37 2055.85 417.271 2077.75 444.171 2077.75C471.071 2077.75 492.97 2055.85 492.97 2028.95C492.97 2002.05 471.071 1980.15 444.171 1980.15Z" fill="#371A45"/>
<path d="M444.171 2114.55C396.971 2114.55 358.57 2076.15 358.57 2028.95C358.57 1981.75 396.971 1943.35 444.171 1943.35C491.371 1943.35 529.771 1981.75 529.771 2028.95C529.771 2076.15 491.371 2114.55 444.171 2114.55ZM444.171 1980.15C417.271 1980.15 395.37 2002.05 395.37 2028.95C395.37 2055.85 417.271 2077.75 444.171 2077.75C471.071 2077.75 492.97 2055.85 492.97 2028.95C492.97 2002.05 471.071 1980.15 444.171 1980.15Z" fill="#371A45"/>
<path d="M546.77 2212.95L894.671 2220.05C935.871 2220.95 970.27 2187.95 971.07 2146.65L974.87 1961.55C975.57 1925.45 950.371 1894.65 916.471 1886.95C911.671 1885.85 906.67 1885.25 901.57 1885.15L553.77 1878.05C512.57 1877.15 478.17 1910.15 477.37 1951.45L474.37 2098.05L473.57 2136.55C472.57 2177.75 505.67 2212.05 546.77 2212.95Z" fill="white"/>
<path d="M546.77 2212.95L894.671 2220.05C935.871 2220.95 970.27 2187.95 971.07 2146.65L974.87 1961.55C975.57 1925.45 950.371 1894.65 916.471 1886.95C911.671 1885.85 906.67 1885.25 901.57 1885.15L553.77 1878.05C512.57 1877.15 478.17 1910.15 477.37 1951.45L474.37 2098.05L473.57 2136.55C472.57 2177.75 505.67 2212.05 546.77 2212.95Z" fill="white"/>
<path d="M546.77 2212.95L894.671 2220.05C935.871 2220.95 970.27 2187.95 971.07 2146.65L974.87 1961.55C975.57 1925.45 950.371 1894.65 916.471 1886.95C911.671 1885.85 906.67 1885.25 901.57 1885.15L553.77 1878.05C512.57 1877.15 478.17 1910.15 477.37 1951.45L474.37 2098.05L473.57 2136.55C472.57 2177.75 505.67 2212.05 546.77 2212.95Z" fill="white"/>
<g opacity="0.2">
<path d="M546.27 2212.95L894.171 2220.05C935.371 2220.95 969.77 2187.95 970.57 2146.65L974.37 1961.55C975.07 1925.45 949.871 1894.65 915.971 1886.95C895.971 1899.65 883.27 1907.75 883.27 1907.75C863.27 2055.95 819.47 2129.25 634.87 2128.45C555.17 2128.05 505.17 2114.95 473.77 2097.95L472.97 2136.45C472.07 2177.75 505.17 2212.05 546.27 2212.95Z" fill="#371A45"/>
</g>
<path d="M881.57 2238.25C880.77 2238.25 880.07 2238.25 879.27 2238.25L561.37 2231.75C532.57 2231.15 505.67 2219.35 485.57 2198.35C465.47 2177.45 454.77 2150.05 455.37 2121.25L458.57 1966.05C459.77 1907.15 508.071 1860.05 566.771 1860.05C567.571 1860.05 568.27 1860.05 569.07 1860.05L886.971 1866.55C915.771 1867.15 942.67 1878.95 962.77 1899.95C982.87 1920.85 993.571 1948.25 992.971 1977.05L989.77 2132.25C988.57 2191.05 940.27 2238.25 881.57 2238.25ZM880.07 2201.45C880.57 2201.45 881.07 2201.45 881.57 2201.45C920.27 2201.45 952.171 2170.35 952.971 2131.45L956.171 1976.25C956.571 1957.25 949.471 1939.15 936.171 1925.35C922.871 1911.55 905.171 1903.65 886.171 1903.35L568.271 1896.85C567.771 1896.85 567.271 1896.85 566.771 1896.85C528.071 1896.85 496.071 1927.95 495.271 1966.85L492.07 2122.05C491.27 2161.45 522.67 2194.15 562.07 2194.95L880.07 2201.45Z" fill="#371A45"/>
<path d="M669.87 2214.15L670.57 2215.45L894.671 2220.05C924.871 2220.65 951.371 2203.15 963.671 2177.45C968.171 2168.15 970.771 2157.75 970.971 2146.75L972.671 2064.55L973.27 2037.45L974.171 1989.85L974.77 1961.75C975.57 1920.55 942.571 1886.15 901.471 1885.35L826.27 1883.85C860.77 1891.05 886.47 1922.15 885.77 1958.55L884.671 2013.45L883.671 2058.55L881.971 2143.75C881.071 2184.85 846.67 2217.95 805.47 2217.05L669.87 2214.15Z" fill="white"/>
<path d="M634.37 2213.45L635.07 2214.75L894.671 2220.05C924.871 2220.65 951.371 2203.15 963.671 2177.45C968.171 2168.15 970.771 2157.75 970.971 2146.75L972.671 2064.55L973.27 2037.45L974.171 1989.85C959.171 1987.45 939.07 1989.15 927.77 2011.15C912.07 2041.75 896.271 2031.05 884.671 2013.45L883.671 2058.55L881.971 2143.75C881.071 2184.85 846.67 2217.95 805.47 2217.05L634.37 2213.45Z" fill="#D8D8D8"/>
<path d="M896.27 2238.55C895.57 2238.55 894.97 2238.55 894.27 2238.55L561.07 2231.75L561.271 2213.45C561.471 2200.05 570.87 2196.55 579.97 2195.75V2195.35L585.57 2195.45C587.07 2195.45 588.371 2195.45 589.671 2195.45L805.97 2198.65C821.17 2199.05 835.37 2193.35 846.27 2182.85C857.17 2172.35 863.371 2158.25 863.671 2143.25L867.471 1958.15C868.071 1931.05 849.17 1907.25 822.57 1901.65L826.77 1865.25L901.87 1866.75C953.37 1867.85 994.37 1910.55 993.27 1961.95L989.471 2147.05C988.971 2171.85 978.77 2195.15 960.77 2212.45C943.17 2229.25 920.37 2238.55 896.27 2238.55ZM879.07 2201.35L894.971 2201.65C910.171 2202.05 924.271 2196.35 935.171 2185.85C946.071 2175.35 952.27 2161.25 952.57 2146.25L956.37 1961.15C957.07 1929.95 932.171 1904.15 900.971 1903.45L887.171 1903.15C898.271 1918.95 904.571 1938.25 904.171 1958.75L900.37 2143.85C900.07 2165.15 892.57 2185.25 879.07 2201.35Z" fill="#371A45"/>
<path d="M746.87 2049.65C746.77 2056.45 755.57 2111.95 755.57 2111.95C755.57 2111.95 773.07 2112.25 794.57 2112.55C821.47 2112.95 843.571 2085.45 844.171 2051.15C844.671 2016.85 823.27 1988.75 796.47 1988.35C778.37 1988.05 757.47 1987.75 757.47 1987.75C757.47 1987.75 746.97 2038.55 746.87 2049.65Z" fill="#22A7F0"/>
<path d="M746.87 2049.65C746.77 2056.45 755.57 2111.95 755.57 2111.95C755.57 2111.95 773.07 2112.25 794.57 2112.55C821.47 2112.95 843.571 2085.45 844.171 2051.15C844.671 2016.85 823.27 1988.75 796.47 1988.35C778.37 1988.05 757.47 1987.75 757.47 1987.75C757.47 1987.75 746.97 2038.55 746.87 2049.65Z" fill="#1C7AEA"/>
<path d="M795.07 2126.35C794.77 2126.35 794.57 2126.35 794.27 2126.35L767.17 2125.95C753.47 2125.75 742.07 2115.85 739.97 2102.35C732.87 2056.25 732.87 2051.55 732.97 2049.55C732.97 2047.05 733.17 2039.35 741.47 1996.75C744.07 1983.65 755.57 1974.15 768.87 1974.15C768.97 1974.15 769.17 1974.15 769.27 1974.15L796.47 1974.55C813.77 1974.85 829.77 1983.35 841.37 1998.75C852.27 2013.05 858.07 2031.75 857.77 2051.45C857.27 2092.85 829.17 2126.35 795.07 2126.35ZM760.57 2049.85C760.57 2050.95 761.07 2058.25 767.27 2098.15L794.67 2098.85C794.77 2098.85 794.87 2098.85 795.07 2098.85C813.77 2098.85 829.87 2077.05 830.27 2051.05C830.47 2037.55 826.671 2024.85 819.471 2015.45C813.071 2007.05 804.77 2002.35 796.17 2002.15L768.97 2001.75C762.87 2031.35 760.67 2045.95 760.57 2049.85Z" fill="#371A45"/>
<path d="M805.088 2050.51C805.595 2016.21 784.25 1988.09 757.412 1987.69C730.574 1987.3 708.405 2014.77 707.897 2049.07C707.39 2083.36 728.735 2111.48 755.573 2111.88C782.412 2112.28 804.58 2084.8 805.088 2050.51Z" fill="#22A7F0"/>
<g opacity="0.7">
<path d="M805.07 2050.55C805.07 2053.15 804.87 2055.65 804.57 2058.15C799.77 2030.85 780.97 2010.35 758.07 2009.95C733.17 2009.55 712.37 2033.05 708.97 2063.75C708.17 2059.05 707.771 2054.15 707.771 2049.05C708.271 2014.75 730.471 1987.25 757.271 1987.65C784.271 1988.15 805.57 2016.25 805.07 2050.55Z" fill="white"/>
</g>
<path d="M805.07 2050.55C804.57 2084.85 782.37 2112.35 755.57 2111.95C728.67 2111.55 707.37 2083.45 707.87 2049.05C707.97 2043.65 708.57 2038.35 709.67 2033.45C716.37 2056.65 733.77 2073.35 754.37 2073.65C776.97 2074.05 796.27 2054.55 802.17 2027.95C804.07 2034.95 805.17 2042.55 805.07 2050.55Z" fill="#1C7AEA"/>
<path d="M756.171 2125.75C755.871 2125.75 755.67 2125.75 755.37 2125.75C738.07 2125.45 722.07 2116.95 710.47 2101.65C699.57 2087.35 693.77 2068.65 694.07 2048.95C694.37 2029.25 700.77 2010.75 711.97 1996.75C724.07 1981.75 740.27 1973.65 757.57 1973.95C774.87 1974.25 790.87 1982.75 802.47 1998.15C813.37 2012.45 819.17 2031.15 818.87 2050.85C818.57 2070.55 812.17 2089.05 800.97 2103.05C789.07 2117.65 773.171 2125.75 756.171 2125.75ZM707.77 2049.15L721.57 2049.35C721.37 2062.85 725.17 2075.55 732.37 2084.95C738.77 2093.35 747.071 2098.05 755.671 2098.25C755.771 2098.25 755.87 2098.25 756.07 2098.25C764.57 2098.25 772.87 2093.85 779.47 2085.65C786.87 2076.45 791.07 2063.95 791.27 2050.35C791.47 2036.85 787.67 2024.15 780.47 2014.75C774.07 2006.35 765.771 2001.65 757.171 2001.45C757.071 2001.45 756.97 2001.45 756.77 2001.45C748.27 2001.45 739.97 2005.85 733.37 2014.05C725.97 2023.25 721.77 2035.75 721.57 2049.35L707.77 2049.15Z" fill="#371A45"/>
<path d="M654.971 2227.65C647.371 2227.65 641.171 2221.55 641.171 2213.85L640.871 2120.15C640.771 2103.05 632.271 2087.15 617.971 2077.75C595.371 2062.85 582.17 2037.85 582.57 2010.85L584.871 1878.85C584.971 1871.35 591.171 1865.25 598.671 1865.25C598.771 1865.25 598.871 1865.25 598.871 1865.25C606.471 1865.35 612.571 1871.65 612.471 1879.25L610.171 2011.25C609.871 2028.75 618.47 2045.05 633.07 2054.65C655.17 2069.15 668.371 2093.55 668.471 2120.05L668.771 2213.75C668.771 2221.35 662.671 2227.55 654.971 2227.65Z" fill="#371A45"/>
<path d="M1307.07 1955.95C1307.07 1955.95 1345.27 1966.05 1353.27 2012.75C1361.27 2059.55 1328.87 2087.05 1328.87 2087.05C1328.87 2087.05 1148.87 2156.05 974.27 2100.55C974.27 2100.55 907.07 2039.35 974.87 1974.75C974.87 1974.75 1160.77 1997.65 1307.07 1955.95Z" fill="white"/>
<path d="M1328.87 2087.05C1328.87 2087.05 1148.87 2156.05 974.27 2100.55C974.27 2100.55 926.471 2057.15 952.171 2004.75C952.271 2004.95 952.37 2005.25 952.37 2005.45C960.37 2029.35 980.67 2047.05 1005.07 2053.05C1136.77 2085.55 1266.17 2052.95 1313.47 2038.25C1330.17 2033.05 1344.07 2021.15 1351.07 2005.15C1351.17 2004.95 1351.27 2004.85 1351.27 2004.65C1351.97 2007.25 1352.57 2009.85 1353.07 2012.75C1361.17 2059.45 1328.87 2087.05 1328.87 2087.05Z" fill="#D8D8D8"/>
<path d="M1122.07 2140.65C1073.77 2140.65 1021.17 2134.75 968.671 2118.05L964.871 2116.85L961.871 2114.15C960.471 2112.85 926.671 2081.65 926.171 2037.45C925.871 2010.05 937.971 1984.55 962.171 1961.45L968.471 1955.45L977.071 1956.55C978.871 1956.75 1161.07 1978.45 1301.97 1938.25L1306.87 1936.85L1311.77 1938.15C1313.77 1938.65 1361.57 1951.95 1371.37 2009.65C1380.97 2066.05 1342.47 2099.65 1340.77 2101.05L1338.37 2103.05L1335.47 2104.15C1330.07 2106.25 1238.37 2140.65 1122.07 2140.65ZM984.171 2084.35C1136.17 2130.85 1294.07 2079.75 1318.97 2071.05C1324.67 2065.05 1340.17 2045.35 1335.17 2015.75C1330.67 1989.55 1314.07 1978.85 1306.27 1975.15C1176.07 2010.55 1021.07 1997.95 981.871 1993.95C969.271 2007.75 962.971 2022.15 963.071 2036.65C963.171 2059.15 978.071 2077.75 984.171 2084.35Z" fill="#371A45"/>
<path d="M1333.97 1956.65C1170.27 2028.85 1008.07 1870.75 1008.07 1870.75C1008.07 1870.75 963.47 1887.25 919.57 1865.55C919.57 1865.55 906.271 1915.75 853.871 1890.95C813.971 1872.05 774.571 1786.75 813.271 1701.85C823.171 1680.15 838.071 1658.65 859.371 1638.15C855.471 1639.35 740.171 1675.55 735.971 1609.65C731.771 1543.85 897.671 1496.65 1022.37 1534.95C1083.67 1553.75 1121.57 1590.05 1121.57 1590.05C1121.57 1590.05 1200.97 1610.65 1282.87 1647.95L1284.07 1414.65C1382.27 1502.95 1443.97 1617.95 1455.87 1721.45C1467.47 1823.35 1431.07 1913.85 1333.97 1956.65Z" fill="white"/>
<g opacity="0.2">
<path d="M1333.97 1956.65C1170.27 2028.85 1008.07 1870.75 1008.07 1870.75C1008.07 1870.75 963.47 1887.25 919.57 1865.55C919.57 1865.55 906.27 1915.75 853.87 1890.95C813.97 1872.05 774.57 1786.75 813.27 1701.85C813.07 1705.35 806.97 1845.15 861.07 1855.25C915.87 1865.55 915.87 1817.85 915.87 1817.85C915.87 1817.85 984.47 1863.35 1015.07 1820.05C1015.07 1820.05 1391.27 2089.15 1455.77 1721.45C1467.47 1823.35 1431.07 1913.85 1333.97 1956.65Z" fill="#371A45"/>
</g>
<path d="M1278.97 1656.35C1235.87 1642.15 1191.87 1631.95 1149.07 1617.25C1143.47 1615.45 1130.27 1611.65 1124.87 1610.05C1119.37 1608.55 1112.87 1607.35 1108.47 1603.15C1084.77 1582.35 1056.57 1566.65 1026.97 1555.95C951.671 1530.15 846.87 1533.35 777.87 1575.55C764.67 1584.95 751.371 1596.55 754.771 1612.85C761.171 1640.95 819.47 1628.85 840.77 1624.25C861.97 1620.65 875.77 1646.85 861.27 1662.35L860.971 1662.75L860.37 1663.45L859.07 1664.95C817.17 1710.35 802.271 1780.15 829.171 1836.35C837.771 1854.25 850.47 1870.65 865.27 1875.95C874.97 1879.95 885.77 1881.95 893.57 1874.25C897.27 1870.95 899.87 1865.15 902.07 1860.45C907.67 1850.65 919.67 1846.65 929.77 1850.35C951.77 1860.05 977.371 1860.85 1000.47 1853.95C1008.27 1851.55 1017.87 1854.35 1023.47 1860.35C1031.97 1868.05 1040.97 1875.35 1050.27 1882.45C1118.07 1933.35 1205.77 1971.75 1290.47 1951.85C1436.97 1915.15 1464.77 1774.25 1418.97 1645.25C1397.27 1583.05 1361.77 1525.25 1318.07 1475.65C1303.47 1458.95 1287.67 1443.45 1271.37 1428.45C1263.57 1421.65 1262.97 1409.75 1269.97 1402.15C1276.87 1394.65 1288.47 1394.25 1295.97 1401.05C1313.27 1417.05 1330.17 1433.55 1345.67 1451.35C1450.07 1568.65 1534.97 1772.95 1424.27 1912.05C1392.07 1950.45 1347.17 1975.95 1298.77 1987.65C1189.47 2012.85 1078.77 1958.15 998.57 1887.45L997.671 1886.65L997.27 1886.25C996.87 1885.85 997.77 1886.75 998.07 1886.95C1001.57 1889.75 1006.37 1890.55 1010.27 1889.35C1009.17 1889.75 1006.87 1890.25 1005.77 1890.55C977.07 1897.85 945.97 1896.75 918.37 1885.35L917.171 1884.85L916.57 1884.65C921.87 1887.05 930.27 1885.15 933.77 1878.75C919.27 1913.85 881.071 1927.45 841.471 1905.45C777.471 1864.55 765.37 1770.15 791.97 1704.05C801.37 1679.75 815.771 1657.95 832.671 1638.85L833.471 1637.95L833.87 1637.55C824.27 1648.65 835.47 1662.95 846.57 1660.45C814.07 1667.15 781.77 1673.15 748.97 1659.05C725.67 1649.05 712.771 1620.55 718.271 1596.05C733.871 1530.15 838.97 1508.05 896.37 1503.85C979.171 1497.35 1068.17 1518.85 1131.87 1574.95L1132.57 1575.65C1131.47 1574.35 1128.47 1572.95 1126.97 1572.65C1129.37 1573.25 1132.17 1574.15 1134.47 1574.75C1153.47 1580.45 1174.17 1586.25 1192.77 1592.75C1224.87 1606.35 1256.37 1621.55 1286.27 1639.65C1295.77 1645.25 1289.37 1659.55 1278.97 1656.35Z" fill="#371A45"/>
<path d="M88.9705 1067.45C141.67 1178.65 222.771 1277.35 328.371 1351.85C349.871 1367.05 372.371 1381.25 395.871 1394.25C407.271 1400.65 418.97 1406.75 430.97 1412.65C467.07 1430.35 503.87 1444.75 541.07 1456.25C573.17 1466.15 605.671 1473.75 638.271 1479.25C677.571 1485.85 717.07 1489.15 756.37 1489.45C770.67 1489.55 784.971 1489.15 799.271 1488.55C1060.07 1475.45 1306.67 1327.65 1431.77 1080.55C1616.17 716.652 1466.97 275.452 1098.67 95.0516C1027.67 60.3516 953.77 37.7516 879.37 26.6516C870.67 25.2516 861.971 24.1516 853.171 23.2516C829.771 20.5516 806.27 18.9516 782.87 18.5516C728.77 17.4516 674.97 22.3516 622.47 32.6516C569.97 42.9516 518.671 58.7516 469.671 79.7516C454.071 86.4516 438.67 93.5516 423.57 101.352C400.87 112.952 378.771 125.652 357.271 139.652C249.971 208.852 159.271 306.152 97.8705 427.352C-8.22949 636.452 -3.92952 871.352 88.9705 1067.45Z" fill="white"/>
<path d="M759.57 1491.25C758.47 1491.25 757.371 1491.25 756.271 1491.25C716.471 1490.95 676.671 1487.55 637.871 1481.05C604.771 1475.55 571.971 1467.75 540.471 1458.05C502.871 1446.55 465.67 1431.85 430.07 1414.35C416.97 1407.85 405.471 1401.85 394.871 1395.85C371.771 1383.05 349.071 1368.75 327.171 1353.35C223.971 1280.55 140.971 1181.95 87.1706 1068.25C-9.92944 863.052 -6.72954 629.152 96.0705 426.352C155.47 309.052 245.37 209.352 356.07 137.952C376.97 124.352 399.37 111.452 422.57 99.6517C437.47 92.0517 452.971 84.7517 468.771 78.0517C517.871 57.0517 569.471 41.1517 621.871 30.8517C674.871 20.4517 728.971 15.6517 782.671 16.7517C806.071 17.2517 829.771 18.8517 853.171 21.4517C862.571 22.4517 871.171 23.5517 879.471 24.9517C955.371 36.2517 1029.37 59.2517 1099.37 93.4517C1278.67 181.252 1411.97 332.952 1474.77 520.452C1537.07 706.452 1522.37 905.752 1433.27 1081.45C1312.37 1320.15 1069.37 1476.85 799.171 1490.45C786.071 1490.95 772.77 1491.25 759.57 1491.25ZM768.371 20.1517C719.671 20.1517 670.871 24.9517 622.871 34.3517C570.671 44.5517 519.37 60.3517 470.47 81.3517C454.77 88.0517 439.27 95.3517 424.47 102.852C401.37 114.652 379.171 127.552 358.271 141.052C248.071 212.052 158.67 311.352 99.5705 428.052C-2.72954 629.852 -5.92944 862.652 90.6706 1066.75C144.271 1179.85 226.77 1277.95 329.47 1350.35C351.17 1365.65 373.871 1379.85 396.771 1392.65C407.371 1398.55 418.771 1404.55 431.771 1411.05C467.171 1428.45 504.171 1443.05 541.671 1454.55C573.071 1464.25 605.67 1471.95 638.57 1477.45C677.17 1483.95 716.771 1487.35 756.371 1487.65C770.571 1487.75 784.971 1487.35 799.171 1486.75C1068.07 1473.25 1309.87 1317.25 1430.17 1079.75C1518.77 904.952 1533.47 706.752 1471.47 521.652C1408.97 335.052 1276.37 184.152 1097.97 96.7517C1028.37 62.7517 954.771 39.7517 879.171 28.5517C870.871 27.2517 862.37 26.1517 853.07 25.1517C829.77 22.4517 806.171 20.8517 782.971 20.4517C777.971 20.2517 773.171 20.1517 768.371 20.1517Z" fill="#371A45"/>
<g opacity="0.2">
<path d="M1431.67 1080.55C1306.57 1327.65 1059.87 1475.45 799.171 1488.55C784.971 1489.25 770.67 1489.55 756.37 1489.55C717.07 1489.25 677.571 1485.95 638.271 1479.35C605.671 1473.85 573.17 1466.35 541.07 1456.35C503.77 1444.95 466.97 1430.45 430.87 1412.75C418.97 1406.75 407.271 1400.75 395.771 1394.35C372.271 1381.25 349.871 1367.05 328.271 1351.85C222.671 1277.35 141.57 1178.75 88.8705 1067.45C59.9705 1006.35 39.5705 941.452 28.4705 874.752C81.1705 979.752 159.67 1072.75 260.37 1143.85C281.87 1159.05 304.37 1173.25 327.87 1186.35C339.27 1192.75 350.97 1198.85 362.97 1204.75C399.07 1222.45 435.87 1236.85 473.07 1248.35C505.17 1258.25 537.671 1265.85 570.271 1271.35C609.571 1277.95 649.07 1281.25 688.37 1281.55C702.77 1281.65 716.971 1281.25 731.271 1280.55C992.07 1267.45 1238.67 1119.65 1363.77 872.552C1436.77 728.452 1457.47 572.252 1432.97 424.852C1533.17 624.052 1540.57 865.752 1431.67 1080.55Z" fill="#371A45"/>
</g>
<path d="M759.57 1503.65C758.47 1503.65 757.371 1503.65 756.171 1503.65C715.671 1503.35 675.171 1499.85 635.771 1493.25C602.071 1487.65 568.771 1479.75 536.771 1469.85C498.571 1458.15 460.77 1443.25 424.57 1425.45C411.27 1418.85 399.57 1412.75 388.77 1406.65C365.37 1393.65 342.17 1379.05 319.97 1363.45C215.07 1289.45 130.67 1189.15 75.8705 1073.55C-22.9295 864.951 -19.6296 626.951 84.9704 420.751C145.37 301.451 236.77 200.051 349.37 127.551C370.67 113.751 393.37 100.651 416.97 88.5513C432.17 80.8513 447.97 73.4513 463.97 66.5513C513.87 45.1513 566.27 29.0513 619.57 18.5513C673.37 7.95131 728.37 3.15128 782.97 4.15128C806.77 4.65128 830.87 6.25133 854.57 8.95133C864.07 9.95133 872.87 11.1513 881.37 12.4513C958.47 23.8513 1033.67 47.3513 1104.77 82.1513C1287.07 171.451 1422.57 325.651 1486.47 516.351C1549.87 705.551 1534.87 908.151 1444.27 1086.85C1321.37 1329.45 1074.37 1488.75 799.771 1502.65C786.471 1503.35 772.97 1503.65 759.57 1503.65ZM768.271 32.5513C720.371 32.5513 672.371 37.2513 625.171 46.5513C573.771 56.6513 523.37 72.1513 475.27 92.7513C459.77 99.3513 444.57 106.451 430.07 113.951C407.37 125.551 385.47 138.151 364.97 151.451C256.67 221.351 168.67 318.851 110.57 433.651C10.0704 631.951 6.87047 860.751 101.87 1061.45C154.47 1172.65 235.67 1269.05 336.57 1340.25C357.97 1355.25 380.17 1369.35 402.77 1381.85C413.17 1387.65 424.47 1393.55 437.27 1399.95C472.07 1416.95 508.471 1431.35 545.271 1442.65C576.171 1452.15 608.17 1459.75 640.57 1465.15C678.47 1471.55 717.47 1474.85 756.47 1475.15C770.37 1475.15 784.57 1474.85 798.57 1474.25C1062.97 1460.95 1300.77 1307.55 1419.07 1074.05C1506.17 902.251 1520.57 707.351 1459.67 525.451C1398.27 342.051 1267.87 193.751 1092.47 107.751C1023.97 74.2513 951.57 51.6513 877.27 40.6513C869.07 39.3513 860.77 38.2513 851.57 37.2513C828.57 34.6513 805.37 33.0513 782.57 32.6513C777.77 32.6513 773.071 32.5513 768.271 32.5513Z" fill="#371A45"/>
<path d="M759.57 1507.85C758.47 1507.85 757.371 1507.85 756.171 1507.85C715.471 1507.55 674.77 1504.05 635.07 1497.35C601.27 1491.65 567.77 1483.75 535.47 1473.85C497.07 1462.05 459.071 1447.05 422.671 1429.25C409.271 1422.65 397.571 1416.45 386.671 1410.35C363.171 1397.25 339.87 1382.65 317.57 1366.95C212.07 1292.55 127.171 1191.75 72.1705 1075.45C-27.1295 865.652 -23.8295 626.352 81.2705 418.952C141.971 299.052 233.97 197.052 347.07 124.052C368.47 110.152 391.27 96.9515 414.97 84.8515C430.17 77.0515 446.071 69.6515 462.271 62.7515C512.471 41.2515 565.071 25.0515 618.771 14.5515C672.871 3.95151 728.17 -0.948519 782.97 0.151481C806.87 0.651481 831.071 2.25153 854.971 4.95153C864.571 5.95153 873.371 7.15151 881.971 8.55151C959.371 20.0515 1035.07 43.6515 1106.47 78.5515C1289.77 168.352 1426.07 323.451 1490.27 515.151C1553.97 705.451 1538.87 909.152 1447.87 1088.85C1324.27 1332.75 1075.97 1492.95 799.87 1506.85C786.67 1507.55 773.07 1507.85 759.57 1507.85ZM768.271 36.7515C720.671 36.7515 672.87 41.4515 625.97 50.6515C574.87 60.6515 524.67 76.1515 476.87 96.5515C461.47 103.152 446.37 110.251 431.87 117.651C409.27 129.151 387.571 141.752 367.171 154.952C259.471 224.452 171.971 321.452 114.171 435.552C14.2705 632.752 11.0705 860.251 105.47 1059.65C157.77 1170.25 238.47 1266.05 338.87 1336.85C360.07 1351.85 382.271 1365.75 404.771 1378.25C415.171 1384.05 426.37 1389.95 439.07 1396.25C473.67 1413.15 509.77 1427.45 546.37 1438.75C577.07 1448.25 608.971 1455.75 641.171 1461.15C678.871 1467.45 717.67 1470.85 756.37 1471.15C770.17 1471.25 784.271 1470.85 798.271 1470.25C1061.17 1457.05 1297.67 1304.55 1415.27 1072.35C1501.87 901.552 1516.17 707.852 1455.67 526.952C1394.57 344.552 1264.97 197.151 1090.57 111.651C1022.47 78.3515 950.47 55.9515 876.57 44.9515C868.47 43.6515 860.17 42.5515 851.07 41.5515C828.17 38.9515 805.17 37.3515 782.37 36.9515C777.77 36.7515 773.071 36.7515 768.271 36.7515Z" fill="#371A45"/>
<path d="M191.171 1226.35C608.871 1551.25 1215.37 1370.15 1278.47 853.151C1321.37 501.351 1005.37 189.651 660.271 171.851C409.071 158.951 157.67 254.651 29.2705 633.651C29.2705 633.651 -1.32947 809.951 40.1705 930.851C81.6705 1051.75 142.771 1162.25 142.771 1162.25L191.171 1226.35Z" fill="#371A45"/>
<path d="M1278.47 853.052C1215.37 1370.05 608.871 1551.25 191.171 1226.25L181.37 1213.25C656.07 1324.55 1151.67 1067.95 1225.37 546.251C1270.77 639.751 1291.67 744.552 1278.47 853.052Z" fill="#220F2D"/>
<path d="M654.47 1482.65C615.97 1482.65 577.27 1479.95 538.47 1474.45L535.671 1473.85C497.171 1462.05 459.27 1447.05 422.87 1429.25C409.47 1422.65 397.77 1416.45 386.87 1410.35C363.37 1397.25 340.071 1382.65 317.771 1366.95C212.271 1292.55 127.37 1191.75 72.3705 1075.45C-26.9295 865.651 -23.6295 626.351 81.4705 418.951C142.17 299.051 234.171 197.051 347.271 124.051L348.87 123.051L350.671 122.351C442.371 86.9513 547.37 72.0513 662.57 77.9513C869.87 88.6513 1076.37 193.451 1214.97 358.351C1339.77 506.851 1396.47 686.551 1374.77 864.351C1351.07 1057.95 1260.87 1219.95 1113.77 1332.65C986.27 1430.25 823.47 1482.65 654.47 1482.65ZM545.07 1438.25C744.07 1466.15 943.07 1417.05 1091.27 1303.45C1230.37 1196.85 1315.77 1043.45 1338.17 859.851C1358.67 692.251 1304.87 522.551 1186.67 381.951C1054.57 224.751 857.87 124.851 660.57 114.651C551.37 109.051 452.07 122.951 365.57 155.951C258.57 225.351 171.771 321.951 114.171 435.451C14.2705 632.651 11.0705 860.151 105.47 1059.55C157.77 1170.15 238.47 1265.95 338.87 1336.75C360.07 1351.75 382.271 1365.65 404.771 1378.15C415.171 1383.95 426.37 1389.85 439.07 1396.15C473.27 1412.95 508.97 1427.05 545.07 1438.25Z" fill="#371A45"/>
<path d="M655.171 1399.15C490.971 1399.15 324.47 1342.65 185.07 1234.15L184.07 1233.35L134.171 1167.05C133.571 1165.95 72.1705 1054.35 30.8705 934.051C-11.0295 812.151 18.2704 639.252 19.5704 631.852L19.9704 630.352C130.77 303.251 346.57 145.651 660.97 161.751C843.67 171.151 1025.67 263.551 1147.87 408.951C1257.77 539.651 1307.67 697.851 1288.57 854.251C1260.87 1081.35 1126.07 1261.05 918.971 1347.15C834.871 1382.05 745.371 1399.15 655.171 1399.15ZM198.37 1219.25C408.57 1382.25 681.57 1424.25 911.07 1328.75C1111.47 1245.45 1241.77 1071.65 1268.57 851.852C1286.97 700.952 1238.57 548.251 1132.37 421.851C1013.67 280.651 837.071 190.951 659.771 181.851C355.371 166.151 146.67 319.051 38.9704 636.151C36.8704 648.651 10.7705 814.551 49.6705 927.651C88.8705 1041.65 146.37 1147.85 151.27 1156.85L198.37 1219.25Z" fill="#371A45"/>
<path d="M1610.57 839.251C1610.67 984.351 1523.97 1106.35 1416.77 1111.75C1309.57 1117.15 1222.67 1003.95 1222.57 858.852C1222.57 857.952 1222.57 856.951 1222.57 856.051C1223.57 712.251 1309.97 591.751 1416.37 586.351C1499.17 582.151 1569.87 648.751 1597.87 746.151C1606.07 774.851 1610.57 806.251 1610.57 839.251Z" fill="white"/>
<g opacity="0.2">
<path d="M1610.57 839.251C1610.67 984.351 1523.97 1106.35 1416.77 1111.75C1309.57 1117.15 1222.67 1003.95 1222.57 858.851C1222.57 857.951 1222.57 856.951 1222.57 856.051C1234.37 870.351 1252.67 884.051 1277.57 877.851C1321.07 866.951 1399.07 769.751 1399.07 769.751C1399.07 769.751 1485.17 758.951 1597.77 746.151C1606.07 774.851 1610.57 806.251 1610.57 839.251Z" fill="#371A45"/>
</g>
<path d="M1409.27 1130.25C1365.37 1130.25 1323.87 1112.85 1288.77 1079.45C1235.07 1028.45 1204.17 947.952 1204.17 858.852C1204.07 704.352 1298.87 573.951 1415.47 568.051C1462.47 565.651 1507.07 583.151 1544.37 618.651C1598.07 669.651 1628.97 750.151 1628.97 839.251C1629.07 993.751 1534.27 1124.15 1417.67 1130.05C1414.87 1130.15 1412.07 1130.25 1409.27 1130.25ZM1423.77 604.551C1421.67 604.551 1419.47 604.651 1417.37 604.751C1319.97 609.651 1240.87 723.652 1240.97 858.852C1241.07 936.852 1268.37 1009.35 1314.17 1052.85C1343.97 1081.15 1379.17 1095.25 1415.87 1093.35C1513.27 1088.45 1592.37 974.451 1592.27 839.251C1592.17 761.251 1564.87 688.751 1519.07 645.251C1490.97 618.551 1458.07 604.551 1423.77 604.551Z" fill="#371A45"/>
<path d="M1625.89 873.509C1632.62 755.234 1572.73 655.634 1492.11 651.047C1411.5 646.46 1340.69 738.623 1333.96 856.899C1327.23 975.174 1387.13 1074.77 1467.74 1079.36C1548.36 1083.95 1619.16 991.785 1625.89 873.509Z" fill="white"/>
<g opacity="0.2">
<path d="M1479.17 1079.35C1560.07 1074.65 1625.97 974.952 1626.37 856.652C1626.47 843.852 1625.67 831.252 1624.27 819.152C1602.77 900.652 1548.77 960.652 1485.87 964.252C1414.87 968.352 1355.57 899.052 1341.67 802.952C1336.37 825.252 1333.47 849.052 1333.37 873.652C1332.97 992.052 1398.27 1084.05 1479.17 1079.35Z" fill="#371A45"/>
</g>
<path d="M1473.17 1097.95C1440.87 1097.95 1410.17 1084.95 1383.97 1060.15C1340.57 1019.05 1314.77 949.351 1314.97 873.651C1315.37 746.051 1389.17 637.951 1479.47 632.651C1514.37 630.651 1547.67 643.551 1575.77 670.151C1619.17 711.251 1644.97 780.951 1644.77 856.651C1644.37 984.251 1570.57 1092.35 1480.27 1097.65C1477.87 1097.85 1475.57 1097.95 1473.17 1097.95ZM1486.47 669.251C1484.87 669.251 1483.27 669.251 1481.67 669.351C1410.37 673.551 1352.17 765.151 1351.87 873.751C1351.67 939.451 1373.17 999.152 1409.37 1033.35C1429.97 1052.75 1453.77 1062.35 1478.27 1060.85C1549.47 1056.65 1607.77 965.051 1608.07 856.451C1608.27 790.751 1586.77 731.051 1550.57 696.851C1531.27 678.851 1509.27 669.251 1486.47 669.251Z" fill="#371A45"/>
<g opacity="0.5">
<path d="M834.471 322.752C834.471 322.752 505.37 326.552 314.471 503.352C314.271 503.552 314.071 503.752 313.871 503.952C273.671 541.252 244.471 588.452 228.871 640.552C208.171 709.452 204.171 759.852 202.371 804.352C196.971 939.752 220.171 1004.05 220.171 1004.05C144.971 929.752 104.171 847.052 107.471 734.252C107.871 723.152 108.571 711.652 109.771 699.952C110.071 697.252 110.371 694.552 110.771 691.852C110.671 691.852 110.771 691.752 110.771 691.652C114.871 668.052 121.471 637.252 131.771 603.052C162.971 499.952 228.27 366.352 363.07 308.052C615.27 199.152 846.371 308.952 834.471 322.752Z" fill="white"/>
</g>
<g opacity="0.5">
<path d="M1069.71 798.555C1123.27 785.791 1154.81 725.575 1140.15 664.059C1125.5 602.542 1070.19 563.02 1016.63 575.783C963.06 588.547 931.52 648.763 946.178 710.279C960.837 771.796 1016.14 811.318 1069.71 798.555Z" fill="white"/>
</g>
<g opacity="0.5">
<path d="M1104.76 934.653C1126.3 927.345 1136.97 901.365 1128.58 876.627C1120.19 851.888 1095.92 837.758 1074.37 845.067C1052.82 852.376 1042.16 878.355 1050.55 903.094C1058.94 927.832 1083.21 941.962 1104.76 934.653Z" fill="white"/>
</g>
<path d="M786.771 1744.25L784.97 1746.55L729.87 1817.85L675.47 1765.25H439.37C417.97 1765.25 398.871 1752.05 391.271 1732.05L247.771 1351.25L151.87 1258.45L204.87 1191.15C213.07 1174.55 230.17 1162.45 250.87 1162.45H574.07C595.97 1162.45 615.571 1176.45 622.671 1197.15L793.87 1697.15C799.77 1714.15 796.271 1731.45 786.771 1744.25Z" fill="#22A7F0"/>
<g opacity="0.7">
<path d="M786.771 1744.35L785.07 1746.65L783.671 1748.45L606.171 1230.25C598.771 1208.65 578.37 1194.05 555.57 1194.05H218.87C212.17 1194.05 205.77 1195.25 199.97 1197.45L204.87 1191.15C213.07 1174.55 230.17 1162.55 250.87 1162.55H574.171C596.071 1162.55 615.671 1176.55 622.771 1197.35L793.97 1697.35C799.77 1714.15 796.271 1731.45 786.771 1744.35Z" fill="white"/>
</g>
<path d="M729.971 1836.25C725.171 1836.25 720.671 1834.45 717.171 1831.05L668.171 1783.55H439.371C410.471 1783.55 384.27 1765.45 374.07 1738.45L232.07 1361.55L139.171 1271.65C132.371 1265.05 131.671 1254.45 137.471 1247.05L189.371 1181.15C201.471 1158.25 224.871 1144.05 250.971 1144.05H574.171C603.971 1144.05 630.471 1163.05 640.171 1191.25L811.371 1691.25C818.771 1712.95 815.17 1736.85 801.57 1755.15C801.47 1755.25 801.471 1755.35 801.371 1755.45L744.471 1829.05C741.271 1833.15 736.471 1835.75 731.271 1836.15C730.771 1836.25 730.371 1836.25 729.971 1836.25ZM176.671 1256.75L260.57 1337.95C262.57 1339.85 264.071 1342.15 264.971 1344.65L408.471 1725.45C413.271 1738.15 425.671 1746.75 439.371 1746.75H675.57C680.37 1746.75 684.971 1748.65 688.371 1751.95L727.971 1790.25L772.07 1733.15C778.47 1724.35 780.07 1713.45 776.57 1703.05L605.371 1203.05C600.771 1189.75 588.271 1180.75 574.171 1180.75H250.971C238.371 1180.75 227.071 1187.75 221.471 1199.15C220.871 1200.25 220.271 1201.35 219.471 1202.35L176.671 1256.75Z" fill="#371A45"/>
<path d="M686.87 1841.25H380.77C359.37 1841.25 340.171 1828.05 332.671 1808.05L243.57 1571.55L144.27 1308.05C131.57 1274.45 156.37 1238.55 192.27 1238.55H515.47C537.47 1238.55 556.97 1252.55 564.07 1273.35L735.37 1773.35C746.97 1806.65 722.17 1841.25 686.87 1841.25Z" fill="#22A7F0"/>
<path d="M461.87 1841.25H380.87C359.47 1841.25 340.271 1828.05 332.771 1808.05L243.671 1571.55L443.171 1486.35C443.171 1486.35 491.77 1536.65 442.57 1603.75C442.57 1603.75 555.37 1770.25 461.87 1841.25Z" fill="#1C7AEA"/>
<path d="M686.871 1859.65H380.771C351.871 1859.65 325.67 1841.45 315.47 1814.45L127.171 1314.45C119.071 1293.05 122.07 1268.95 135.07 1250.15C148.07 1231.35 169.57 1220.05 192.47 1220.05H515.671C545.471 1220.05 571.971 1239.05 581.671 1267.25L752.871 1767.25C760.271 1788.85 756.871 1811.85 743.671 1830.45C730.471 1849.05 709.671 1859.65 686.871 1859.65ZM161.57 1301.55L349.871 1801.55C354.671 1814.35 367.071 1822.95 380.771 1822.95H686.871C697.671 1822.95 707.471 1817.95 713.671 1809.15C719.971 1800.35 721.57 1789.45 718.07 1779.25L546.871 1279.25C542.271 1265.95 529.771 1256.95 515.671 1256.95H192.47C181.47 1256.95 171.571 1262.15 165.371 1271.15C159.171 1280.15 157.77 1291.25 161.57 1301.55Z" fill="#371A45"/>
<path d="M426.671 1673.75C459.971 1771.25 373.17 1799.35 330.97 1803.45C330.97 1882.65 182.471 1919.25 110.271 1845.65C58.7705 1793.15 54.4705 1733.65 67.4705 1681.45C86.0705 1606.25 140.57 1546.65 140.57 1546.65C133.07 1434.15 190.271 1429.55 190.271 1429.55L215.871 1497.55C273.571 1507.95 382.071 1426.05 424.371 1484.75C467.771 1544.95 380.171 1591.25 380.171 1591.25C403.871 1623.25 418.671 1650.45 426.671 1673.75Z" fill="white"/>
<g opacity="0.2">
<path d="M330.97 1803.55C330.97 1882.75 182.471 1919.35 110.271 1845.75C58.7705 1793.25 54.4705 1733.75 67.4705 1681.55C67.4705 1681.55 59.8705 1793.55 151.97 1809.25C230.07 1822.55 197.07 1742.45 196.07 1740.05C199.97 1741.45 431.271 1825.25 426.771 1673.75C459.971 1771.35 373.17 1799.35 330.97 1803.55Z" fill="#371A45"/>
</g>
<path d="M211.97 1904.05C171.77 1904.05 129.07 1891.25 97.0704 1858.65C40.1704 1800.65 27.6704 1725.55 61.0704 1641.45C80.4704 1592.55 109.771 1554.55 121.671 1540.35C116.271 1418.55 185.571 1411.55 188.671 1411.35C196.871 1410.75 204.47 1415.55 207.37 1423.25L228.77 1480.15C246.47 1479.65 270.27 1471.75 293.47 1464.15C343.37 1447.75 405.471 1427.35 439.171 1474.15C452.871 1493.25 457.67 1514.05 452.87 1534.55C446.17 1563.05 423.07 1584.35 406.37 1596.45C449.97 1659.65 462.77 1712.45 444.57 1753.85C427.47 1792.65 385.671 1812.85 347.671 1819.75C341.371 1850.05 317.17 1876.05 280.47 1891.05C260.57 1899.15 236.77 1904.05 211.97 1904.05ZM154.07 1559.15C148.17 1565.65 11.3705 1718.75 123.37 1832.85C161.37 1871.55 224.17 1874.35 266.47 1857.05C280.27 1851.35 312.47 1834.85 312.47 1803.55C312.47 1794.05 319.67 1786.15 329.07 1785.25C358.67 1782.35 397.77 1768.45 410.77 1738.95C424.57 1707.65 408.771 1660.45 365.171 1602.45C361.971 1598.15 360.77 1592.65 361.97 1587.35C363.17 1582.15 366.57 1577.65 371.27 1575.15C382.07 1569.35 411.57 1549.15 416.87 1526.05C419.17 1516.05 416.671 1506.05 409.171 1495.65C392.471 1472.35 356.97 1481.95 304.77 1499.05C271.07 1510.15 239.37 1520.55 212.27 1515.75C205.87 1514.55 200.57 1510.15 198.37 1504.15L179.671 1454.55C167.471 1465.65 155.171 1492.15 158.671 1545.65C159.171 1550.55 157.47 1555.45 154.07 1559.15Z" fill="#371A45"/>
<path d="M229.57 1770.95C262.47 1780.95 297.67 1786.65 332.07 1785.15C358.57 1785.55 356.571 1824.25 330.171 1821.95C301.671 1818.35 274.271 1810.35 247.871 1799.55C239.171 1795.95 230.871 1792.25 222.271 1787.85C217.771 1785.55 215.971 1779.95 218.271 1775.45C220.371 1771.25 225.27 1769.35 229.57 1770.95Z" fill="#371A45"/>
<path d="M714.27 2542.75C539.47 2542.75 466.97 2506.25 463.37 2504.35C454.37 2499.65 450.87 2488.55 455.57 2479.55C460.27 2470.55 471.27 2467.05 480.27 2471.65C481.77 2472.45 584.37 2522.25 839.37 2500.15C849.57 2499.25 858.37 2506.75 859.27 2516.85C860.17 2526.95 852.67 2535.85 842.57 2536.75C794.77 2541.05 752.07 2542.75 714.27 2542.75Z" fill="#371A45"/>
<path d="M1065.07 2531.25C969.671 2531.25 905.171 2512.35 900.671 2511.05C890.971 2508.15 885.471 2497.85 888.371 2488.15C891.271 2478.45 901.57 2472.95 911.27 2475.85C913.87 2476.65 1084.77 2526.05 1280.57 2459.15C1290.17 2455.85 1300.67 2461.05 1303.87 2470.65C1307.07 2480.25 1302.07 2490.75 1292.37 2493.95C1208.57 2522.55 1129.67 2531.25 1065.07 2531.25Z" fill="#371A45"/>
<path d="M1200.77 2732.55C1130.37 2699.95 968.271 2714.05 946.171 2734.15Z" fill="white"/>
<path d="M1196.87 2740.95C1141.07 2718.25 1016.57 2723.55 960.771 2746.45C959.071 2747.25 958.371 2748.15 958.571 2747.85C940.371 2763.75 916.271 2737.55 933.771 2720.75C970.671 2692.75 1093.07 2697.55 1139.47 2705.45C1161.47 2709.05 1183.57 2714.05 1204.67 2724.35C1209.27 2726.55 1211.17 2732.05 1208.87 2736.65C1206.67 2740.95 1201.37 2742.85 1196.87 2740.95Z" fill="#371A45"/>
<path d="M651.97 2717.65C595.17 2709.15 557.77 2708.25 497.57 2718.25Z" fill="white"/>
<path d="M650.671 2726.75C599.571 2721.35 550.37 2724.15 500.57 2736.35C475.37 2741.05 468.97 2703.95 494.47 2700.05C546.87 2693.45 602.171 2696.65 653.371 2708.55C664.571 2711.05 662.071 2727.65 650.671 2726.75Z" fill="#371A45"/>
<path d="M1323.57 1974.75C1321.27 1974.75 1318.87 1974.15 1316.67 1972.95C1310.07 1969.15 1307.77 1960.75 1311.57 1954.15C1341.27 1902.45 1349.27 1850.65 1335.37 1800.15C1305.77 1692.65 1187.27 1624.95 1186.07 1624.25C1179.47 1620.55 1177.07 1612.15 1180.77 1605.45C1184.47 1598.75 1192.87 1596.45 1199.57 1600.15C1204.87 1603.15 1329.37 1674.35 1361.97 1792.75C1377.87 1850.55 1368.97 1909.45 1335.47 1967.75C1332.97 1972.25 1328.37 1974.75 1323.57 1974.75Z" fill="#371A45"/>
<path d="M404.796 1381.98C417.466 1367.6 412.721 1342.72 394.198 1326.4C375.675 1310.08 350.389 1308.5 337.72 1322.88C325.05 1337.26 329.795 1362.15 348.318 1378.47C366.841 1394.79 392.127 1396.36 404.796 1381.98Z" fill="white"/>
<path d="M395.118 1373.45C404.136 1363.21 400.765 1345.51 387.587 1333.89C374.41 1322.28 356.417 1321.17 347.399 1331.4C338.38 1341.64 341.752 1359.35 354.929 1370.96C368.106 1382.57 386.099 1383.69 395.118 1373.45Z" fill="#371A45"/>
</svg>
